<?xml version="1.0" standalone="no"?><!DOCTYPE svg PUBLIC "-//W3C//DTD SVG 1.1//EN" "http://www.w3.org/Graphics/SVG/1.1/DTD/svg11.dtd"><svg t="1624512856469" class="icon" viewBox="0 0 1024 1024" version="1.1" xmlns="http://www.w3.org/2000/svg" p-id="5560" xmlns:xlink="http://www.w3.org/1999/xlink" width="200" height="200"><defs><style type="text/css"></style></defs><path d="M512 981.333333C253.866667 981.333333 42.666667 770.133333 42.666667 512S253.866667 42.666667 512 42.666667s469.333333 211.2 469.333333 469.333333-211.2 469.333333-469.333333 469.333333z m0-844.8c-206.506667 0-375.466667 168.96-375.466667 375.466667 0 206.506667 168.96 375.466667 375.466667 375.466667 206.506667 0 375.466667-168.96 375.466667-375.466667 0-206.506667-168.96-375.466667-375.466667-375.466667z" p-id="5561" fill="#cdcdcd"></path><path d="M512 802.986667c-161.152 0-290.986667-131.413333-290.986667-290.986667S350.848 221.013333 512 221.013333s290.986667 131.413333 290.986667 290.986667-129.834667 290.986667-290.986667 290.986667z m0-488.106667A197.290667 197.290667 0 0 0 314.88 512c0 107.946667 87.594667 197.12 197.12 197.12A196.266667 196.266667 0 0 0 709.12 512 196.266667 196.266667 0 0 0 512 314.88z" p-id="5562" fill="#cdcdcd"></path><path d="M512 630.912a120.533333 120.533333 0 0 1-120.448-120.490667A119.509333 119.509333 0 0 1 512 389.973333a120.490667 120.490667 0 0 1 0 240.938667z m0-145.493333a26.368 26.368 0 0 0-26.581333 26.581333c0 15.658667 10.922667 26.581333 26.581333 26.581333a25.472 25.472 0 0 0 26.581333-26.581333 26.368 26.368 0 0 0-26.581333-26.581333z" p-id="5563" fill="#cdcdcd"></path></svg>