<?xml version="1.0" standalone="no"?><!DOCTYPE svg PUBLIC "-//W3C//DTD SVG 1.1//EN" "http://www.w3.org/Graphics/SVG/1.1/DTD/svg11.dtd"><svg t="1624500298159" class="icon" viewBox="0 0 1024 1024" version="1.1" xmlns="http://www.w3.org/2000/svg" p-id="1337" xmlns:xlink="http://www.w3.org/1999/xlink" width="200" height="200"><defs><style type="text/css"></style></defs><path d="M512 0a512 512 0 1 0 512 512A512 512 0 0 0 512 0z m103.253333 170.666667a42.666667 42.666667 0 0 1 56.32-22.186667 397.653333 397.653333 0 0 1 205.653334 205.653333A42.666667 42.666667 0 0 1 853.333333 408.746667a42.666667 42.666667 0 0 1-17.066666 3.413333 42.666667 42.666667 0 0 1-39.253334-25.6 312.32 312.32 0 0 0-161.706666-161.706667A42.666667 42.666667 0 0 1 615.253333 170.666667zM78.08 512a42.666667 42.666667 0 0 1 42.666667-42.666667H298.666667a42.666667 42.666667 0 0 1 0 85.333334H120.746667a42.666667 42.666667 0 0 1-42.666667-42.666667z m330.666667 341.333333a42.666667 42.666667 0 0 1-39.253334 25.6 42.666667 42.666667 0 0 1-17.066666-3.413333 397.653333 397.653333 0 0 1-205.653334-205.653333 42.666667 42.666667 0 0 1 78.08-34.133334 312.746667 312.746667 0 0 0 161.706667 161.706667A42.666667 42.666667 0 0 1 408.746667 853.333333zM386.986667 225.28a312.746667 312.746667 0 0 0-161.706667 161.706667 42.666667 42.666667 0 0 1-39.253333 25.6A42.666667 42.666667 0 0 1 170.666667 408.746667a42.666667 42.666667 0 0 1-22.186667-56.32 397.653333 397.653333 0 0 1 204.373333-205.653334 42.666667 42.666667 0 1 1 34.133334 78.08zM554.666667 903.253333a42.666667 42.666667 0 1 1-85.333334 0V725.333333a42.666667 42.666667 0 0 1 85.333334 0zM554.666667 298.666667a42.666667 42.666667 0 0 1-85.333334 0V120.746667a42.666667 42.666667 0 0 1 85.333334 0z m322.56 372.48a397.653333 397.653333 0 0 1-205.653334 205.653333 42.666667 42.666667 0 0 1-17.066666 3.413333 42.666667 42.666667 0 0 1-17.066667-81.92 312.746667 312.746667 0 0 0 161.706667-161.706666 42.666667 42.666667 0 0 1 78.08 34.133333z m26.026666-116.48H725.333333a42.666667 42.666667 0 0 1 0-85.333334h177.92a42.666667 42.666667 0 1 1 0 85.333334z" fill="#3E2AD1" p-id="1338"></path></svg>